<svg width="40" height="49" viewBox="0 0 40 49" fill="none" xmlns="http://www.w3.org/2000/svg">
<g clip-path="url(#clip0)">
<rect width="40" height="49" fill="white"/>
<path d="M37.5622 12.5315C37.5176 12.0033 37.0727 11.5986 36.5426 11.6038H28.7932V8.6671C28.7932 3.88028 24.9125 0 20.1261 0C15.3393 0 11.459 3.88028 11.459 8.6671V11.6038H3.70957C3.18182 11.6058 2.7413 12.0065 2.68991 12.5315L0.0184878 43.2439C-0.102995 44.6678 0.378157 46.0778 1.34564 47.1306C2.31272 48.1829 3.67691 48.7815 5.10643 48.7803H35.1557C36.5852 48.7815 37.9494 48.1829 38.9165 47.1306C39.884 46.0778 40.3655 44.6678 40.244 43.2439L37.5622 12.5315ZM13.4983 8.6671C13.4983 5.00669 16.4657 2.03932 20.1261 2.03932C23.7865 2.03932 26.7539 5.00669 26.7539 8.6671V11.6038H13.4983V8.6671ZM37.4093 45.752C36.8326 46.3869 36.0132 46.7466 35.1557 46.741H5.09607C4.23852 46.7414 3.4204 46.3817 2.84047 45.75C2.26094 45.1179 1.97297 44.2715 2.04745 43.4172L4.63722 13.6431H11.459V20.0056C9.81916 20.5103 8.79512 22.1382 9.05043 23.8349C9.30535 25.5313 10.7631 26.786 12.4786 26.786C14.1941 26.786 15.6515 25.5313 15.9068 23.8349C16.1618 22.1382 15.1377 20.5103 13.4983 20.0056V13.6328H26.7539V20.0056C25.114 20.5103 24.09 22.1382 24.3453 23.8349C24.6002 25.5313 26.058 26.786 27.7735 26.786C29.489 26.786 30.9464 25.5313 31.2017 23.8349C31.4566 22.1382 30.4326 20.5103 28.7932 20.0056V13.6328H35.6046L38.1944 43.4068C38.278 44.2648 37.9924 45.1175 37.4093 45.752V45.752ZM12.3257 21.9024C12.4273 21.9159 12.53 21.9159 12.6316 21.9024C13.3856 21.9836 13.9448 22.6408 13.9042 23.398C13.8631 24.1556 13.237 24.749 12.4786 24.749C11.7199 24.749 11.0937 24.1556 11.0531 23.398C11.0125 22.6408 11.5713 21.9836 12.3257 21.9024ZM27.6206 21.9024C27.7221 21.9159 27.8249 21.9159 27.9265 21.9024C28.6805 21.9836 29.2397 22.6408 29.1991 23.398C29.158 24.1556 28.5319 24.749 27.7735 24.749C27.0148 24.749 26.3886 24.1556 26.348 23.398C26.3074 22.6408 26.8662 21.9836 27.6206 21.9024V21.9024Z" fill="black"/>
<path d="M24.5632 38.3477C24.5632 38.9717 24.4132 39.5537 24.1132 40.0937C23.8132 40.6217 23.3572 41.0477 22.7452 41.3717C22.1332 41.6957 21.3832 41.8577 20.4952 41.8577C19.6312 41.8577 18.8572 41.7077 18.1732 41.4077C17.4892 41.0957 16.9432 40.6637 16.5352 40.1117C16.1272 39.5597 15.8932 38.9237 15.8332 38.2037H18.0292C18.0892 38.7557 18.3232 39.2297 18.7312 39.6257C19.1512 40.0217 19.7092 40.2197 20.4052 40.2197C21.0292 40.2197 21.5092 40.0517 21.8452 39.7157C22.1932 39.3797 22.3672 38.9477 22.3672 38.4197C22.3672 37.9637 22.2412 37.5917 21.9892 37.3037C21.7372 37.0037 21.4252 36.7697 21.0532 36.6017C20.6812 36.4337 20.1712 36.2417 19.5232 36.0257C18.7312 35.7737 18.0832 35.5217 17.5792 35.2697C17.0872 35.0177 16.6672 34.6517 16.3192 34.1717C15.9712 33.6917 15.7972 33.0617 15.7972 32.2817C15.7972 31.5977 15.9652 30.9977 16.3012 30.4817C16.6372 29.9657 17.1172 29.5697 17.7412 29.2937C18.3652 29.0057 19.0852 28.8617 19.9012 28.8617C21.1972 28.8617 22.2232 29.1737 22.9792 29.7977C23.7472 30.4217 24.1852 31.2377 24.2932 32.2457H22.0792C21.9952 31.7657 21.7672 31.3577 21.3952 31.0217C21.0352 30.6737 20.5372 30.4997 19.9012 30.4997C19.3252 30.4997 18.8632 30.6497 18.5152 30.9497C18.1672 31.2377 17.9932 31.6577 17.9932 32.2097C17.9932 32.6417 18.1132 33.0017 18.3532 33.2897C18.5932 33.5657 18.8932 33.7877 19.2532 33.9557C19.6252 34.1117 20.1292 34.2977 20.7652 34.5137C21.5692 34.7657 22.2232 35.0237 22.7272 35.2877C23.2432 35.5397 23.6752 35.9117 24.0232 36.4037C24.3832 36.8957 24.5632 37.5437 24.5632 38.3477Z" fill="#29A867"/>
</g>
<defs>
<clipPath id="clip0">
<rect width="40" height="49" fill="white"/>
</clipPath>
</defs>
</svg>
